# xmcd
#
# Track frame offsets:
#	150
#	16025
#	29845
#	47293
#
# Disc length: 930 seconds
#
# Revision: 0
# Processed by: cddbd v1.5.2PL0 Copyright (c) Steve Scherf et al.
# Submitted via: EasyCDDAExtractor 11.0.0.1
#
DISCID=2403a004
DTITLE=ΤΕΡΕΖΑ - ΠΑΜΕ ΕΓΩ ΚΙ ΕΣΥ
DYEAR=2002
DGENRE=ΛΑΪΚΑ
TTITLE0=ΠΑΜΕ ΕΓΩ ΚΙ ΕΣΥ
TTITLE1=ΠΑΜΕ ΕΓΩ ΚΙ ΕΣΥ GUITARMX
TTITLE2=FLY ME TO THE MOON BEASYBOSSA MIX
TTITLE3=ΑΚΟΥΣΕ ΜΕ NIXMIX 2002
EXTD=
EXTT0=
EXTT1=
EXTT2=
EXTT3=
PLAYORDER=
